<svg width="36" height="36" viewBox="0 0 36 36" fill="none" xmlns="http://www.w3.org/2000/svg">
<path d="M23.25 3C24.0238 2.99992 24.788 3.17088 25.488 3.50065C26.188 3.83042 26.8064 4.31084 27.2991 4.90753C27.7917 5.50422 28.1464 6.20243 28.3376 6.9522C28.5289 7.70196 28.5521 8.48473 28.4055 9.2445L28.383 9.3435C29.688 9.77881 30.8289 10.6023 31.6531 11.7037C32.4772 12.8052 32.9454 14.1321 32.9948 15.5069C33.0442 16.8817 32.6726 18.2387 31.9296 19.3965C31.1867 20.5543 30.1079 21.4576 28.8375 21.9855L27.2085 31.746C27.1503 32.0963 26.9697 32.4145 26.6989 32.6441C26.4281 32.8737 26.0846 32.9998 25.7295 33H10.2705C9.91546 32.9998 9.57197 32.8737 9.30116 32.6441C9.03034 32.4145 8.84975 32.0963 8.79152 31.746L7.24802 22.491C6.20991 22.4321 5.22423 22.0155 4.45851 21.3121C3.6928 20.6087 3.19431 19.6618 3.04778 18.6324C2.90126 17.603 3.11573 16.5546 3.65475 15.6654C4.19377 14.7763 5.02408 14.1012 6.00452 13.755L6.00002 13.5C5.99973 11.9812 6.38381 10.487 7.11649 9.15659C7.84918 7.82619 8.90663 6.70284 10.1904 5.89118C11.4741 5.07952 12.9424 4.60594 14.4585 4.51455C15.9745 4.42316 17.4891 4.71693 18.861 5.3685C19.3385 4.64038 19.9897 4.04259 20.7559 3.62909C21.5222 3.21559 22.3793 2.99939 23.25 3ZM13.5 22.5H10.29L11.541 30H13.5V22.5ZM19.5 22.5H16.5V30H19.5V22.5ZM25.7085 22.5H22.5V30H24.4575L25.7085 22.5ZM15 7.5C11.787 7.5 9.16352 10.026 9.00752 13.1505L9.00002 13.446L9.00452 13.701C9.01513 14.29 8.85208 14.8691 8.53571 15.3661C8.21935 15.863 7.76367 16.2558 7.22552 16.4955L7.00052 16.584C6.66746 16.7026 6.38692 16.9349 6.20833 17.24C6.02974 17.5452 5.96455 17.9035 6.02424 18.252C6.08393 18.6005 6.26468 18.9167 6.53465 19.145C6.80461 19.3733 7.14647 19.499 7.50002 19.5H26.25C26.8045 19.5 27.352 19.377 27.8532 19.14C28.3544 18.903 28.7968 18.5577 29.1486 18.1292C29.5004 17.7006 29.7527 17.1994 29.8875 16.6616C30.0223 16.1238 30.0361 15.5628 29.9281 15.019C29.82 14.4752 29.5927 13.9621 29.2625 13.5167C28.9323 13.0713 28.5074 12.7047 28.0185 12.4432C27.5296 12.1817 26.9888 12.0319 26.435 12.0046C25.8813 11.9772 25.3283 12.073 24.816 12.285L24.5535 12.4065C23.8614 12.7632 23.0577 12.8367 22.3123 12.6117C21.5669 12.3866 20.9382 11.8806 20.559 11.2005L20.454 10.995C19.9746 9.95164 19.206 9.06775 18.2392 8.44824C17.2724 7.82873 16.1482 7.49963 15 7.5ZM23.25 6C22.8612 5.99992 22.479 6.10061 22.1406 6.29226C21.8023 6.4839 21.5194 6.75996 21.3195 7.0935C22.0941 7.85607 22.7242 8.75252 23.1795 9.7395C23.8584 9.39067 24.592 9.16083 25.3485 9.06C25.48 8.71918 25.5266 8.35147 25.4841 7.98863C25.4417 7.6258 25.3116 7.27875 25.105 6.97747C24.8984 6.6762 24.6215 6.42977 24.2983 6.25946C23.9751 6.08916 23.6153 6.00011 23.25 6Z" fill="#AFEAC0"/>
</svg>
