<svg width="36" height="36" viewBox="0 0 36 36" fill="none" xmlns="http://www.w3.org/2000/svg">
<path d="M24 19.5H21C21 20.2956 20.6839 21.0587 20.1213 21.6213C19.5587 22.1839 18.7956 22.5 18 22.5C17.2044 22.5 16.4413 22.1839 15.8787 21.6213C15.3161 21.0587 15 20.2956 15 19.5H12C12 21.0913 12.6321 22.6174 13.7574 23.7426C14.8826 24.8679 16.4087 25.5 18 25.5C19.5913 25.5 21.1174 24.8679 22.2426 23.7426C23.3679 22.6174 24 21.0913 24 19.5ZM15 15C15 15.3978 14.842 15.7794 14.5607 16.0607C14.2794 16.342 13.8978 16.5 13.5 16.5C13.1022 16.5 12.7206 16.342 12.4393 16.0607C12.158 15.7794 12 15.3978 12 15C12 14.6022 12.158 14.2206 12.4393 13.9393C12.7206 13.658 13.1022 13.5 13.5 13.5C13.8978 13.5 14.2794 13.658 14.5607 13.9393C14.842 14.2206 15 14.6022 15 15ZM22.5 16.5C22.8978 16.5 23.2794 16.342 23.5607 16.0607C23.842 15.7794 24 15.3978 24 15C24 14.6022 23.842 14.2206 23.5607 13.9393C23.2794 13.658 22.8978 13.5 22.5 13.5C22.1022 13.5 21.7206 13.658 21.4393 13.9393C21.158 14.2206 21 14.6022 21 15C21 15.3978 21.158 15.7794 21.4393 16.0607C21.7206 16.342 22.1022 16.5 22.5 16.5Z" fill="#E6AE2D"/>
<path fill-rule="evenodd" clip-rule="evenodd" d="M33 18C33 26.2845 26.2845 33 18 33C9.7155 33 3 26.2845 3 18C3 9.7155 9.7155 3 18 3C26.2845 3 33 9.7155 33 18ZM30 18C30 21.1826 28.7357 24.2348 26.4853 26.4853C24.2348 28.7357 21.1826 30 18 30C14.8174 30 11.7652 28.7357 9.51472 26.4853C7.26428 24.2348 6 21.1826 6 18C6 14.8174 7.26428 11.7652 9.51472 9.51472C11.7652 7.26428 14.8174 6 18 6C21.1826 6 24.2348 7.26428 26.4853 9.51472C28.7357 11.7652 30 14.8174 30 18Z" fill="#E6AE2D"/>
</svg>
