<svg width="36" height="36" viewBox="0 0 36 36" fill="none" xmlns="http://www.w3.org/2000/svg">
<path d="M33.6375 13.6814C33.5012 13.2614 33.2445 12.8909 32.8992 12.6158C32.5538 12.3408 32.1352 12.1734 31.6955 12.1345L23.3437 11.4145L20.07 3.62949C19.8996 3.221 19.6121 2.87207 19.2437 2.62664C18.8754 2.38121 18.4426 2.25024 18 2.25024C17.5574 2.25024 17.1246 2.38121 16.7563 2.62664C16.3879 2.87207 16.1004 3.221 15.93 3.62949L12.6661 11.4145L4.30453 12.1387C3.86302 12.1758 3.44228 12.3424 3.0951 12.6177C2.74791 12.893 2.48971 13.2646 2.3529 13.686C2.21608 14.1074 2.20673 14.5599 2.32601 14.9866C2.4453 15.4133 2.68792 15.7953 3.02344 16.0847L9.36703 21.6281L7.46578 29.8603C7.36524 30.2911 7.39393 30.7419 7.54825 31.1565C7.70257 31.5711 7.97568 31.931 8.33343 32.1912C8.69118 32.4514 9.11769 32.6004 9.55965 32.6195C10.0016 32.6386 10.4394 32.527 10.8183 32.2987L17.9902 27.9393L25.1775 32.2987C25.5564 32.527 25.9942 32.6386 26.4361 32.6195C26.8781 32.6004 27.3046 32.4514 27.6623 32.1912C28.0201 31.931 28.2932 31.5711 28.4475 31.1565C28.6018 30.7419 28.6305 30.2911 28.53 29.8603L26.6302 21.6197L32.9723 16.0847C33.3078 15.7943 33.55 15.4112 33.6683 14.9836C33.7867 14.556 33.7759 14.1029 33.6375 13.6814ZM31.4972 14.3845L25.155 19.9195C24.8463 20.188 24.6167 20.5356 24.4908 20.9248C24.365 21.3141 24.3476 21.7303 24.4406 22.1287L26.3461 30.375L19.1644 26.0156C18.814 25.8022 18.4116 25.6893 18.0014 25.6893C17.5912 25.6893 17.1888 25.8022 16.8384 26.0156L9.66656 30.375L11.5594 22.1343C11.6524 21.7359 11.635 21.3197 11.5092 20.9305C11.3833 20.5412 11.1537 20.1936 10.845 19.9251L4.5 14.3929C4.49948 14.3887 4.49948 14.3845 4.5 14.3803L12.8587 13.6575C13.2668 13.6215 13.6574 13.4748 13.9882 13.2332C14.3191 12.9915 14.5776 12.6642 14.7361 12.2864L18 4.51121L21.2625 12.2864C21.4209 12.6642 21.6795 12.9915 22.0104 13.2332C22.3412 13.4748 22.7317 13.6215 23.1398 13.6575L31.5 14.3803V14.3901L31.4972 14.3845Z" fill="#7327AD"/>
</svg>
