<svg width="24" height="24" viewBox="0 0 24 24" fill="none" xmlns="http://www.w3.org/2000/svg">
<path id="logo cake" d="M1.33334 24C0.95556 24 0.638671 23.8848 0.382671 23.6544C0.126671 23.424 -0.000884275 23.1392 4.61361e-06 22.8V16.8C4.61361e-06 16.14 0.261338 15.5748 0.784004 15.1044C1.30667 14.634 1.93423 14.3992 2.66667 14.4V9.6C2.66667 8.94 2.928 8.3748 3.45067 7.9044C3.97334 7.434 4.60089 7.1992 5.33334 7.2H10.6667V5.46C10.2667 5.22 9.94445 4.93 9.7 4.59C9.45556 4.25 9.33333 3.84 9.33333 3.36C9.33333 3.06 9.4 2.7648 9.53333 2.4744C9.66667 2.184 9.86667 1.9192 10.1333 1.68L12 0L13.8667 1.68C14.1333 1.92 14.3333 2.1848 14.4667 2.4744C14.6 2.764 14.6667 3.0592 14.6667 3.36C14.6667 3.84 14.5444 4.25 14.3 4.59C14.0556 4.93 13.7333 5.22 13.3333 5.46V7.2H18.6667C19.4 7.2 20.028 7.4348 20.5507 7.9044C21.0733 8.374 21.3342 8.9392 21.3333 9.6V14.4C22.0667 14.4 22.6947 14.6352 23.2173 15.1056C23.74 15.576 24.0009 16.1408 24 16.8V22.8C24 23.14 23.872 23.4252 23.616 23.6556C23.36 23.886 23.0436 24.0008 22.6667 24H1.33334ZM5.33334 14.4H18.6667V9.6H5.33334V14.4ZM2.66667 21.6H21.3333V16.8H2.66667V21.6Z" fill="#7327AD"/>
</svg>
