<svg width="1440" height="575" viewBox="0 0 1440 575" fill="none" xmlns="http://www.w3.org/2000/svg">
<path fill-rule="evenodd" clip-rule="evenodd" d="M1143.34 79.0677C1250.57 19.6575 1344.07 -32.1417 1445.47 24.2777C1476.47 41.5259 1465.86 145.696 1455.53 247.101C1450.69 294.615 1445.91 341.522 1445.5 378.596H1445.98L1445.97 572.882L1397.57 526.294C1349.17 480.765 1252.37 438.412 1155.56 445.824C1101.16 449.989 1046.76 476.894 992.357 503.798C949.956 524.768 907.554 545.738 865.152 555.941C782.178 575 699.203 533.382 616.229 491.764C602.399 484.827 588.57 477.891 574.741 471.235C477.937 425.706 381.133 422.53 284.33 438.412C187.526 453.236 90.7221 514.647 42.3202 545.353L-6.08177 575L-6.08175 383.605H-36C91.2066 79.996 432.944 114.793 744.747 176.957C907.94 209.493 1032.92 140.245 1143.34 79.0677Z" fill="#7327AD"/>
</svg>
